<?xml version="1.0" encoding="utf-8"?>
<!-- Svg Vector Icons : http://www.onlinewebfonts.com/icon -->
<!DOCTYPE svg PUBLIC "-//W3C//DTD SVG 1.1//EN" "http://www.w3.org/Graphics/SVG/1.1/DTD/svg11.dtd">
<svg version="1.1" xmlns="http://www.w3.org/2000/svg" xmlns:xlink="http://www.w3.org/1999/xlink" x="0px" y="0px" viewBox="0 0 1000 1000" enable-background="new 0 0 1000 1000" xml:space="preserve">
<metadata> Svg Vector Icons : http://www.onlinewebfonts.com/icon </metadata>
<g><g transform="translate(0.000000,511.000000) scale(0.100000,-0.100000)"><path d="M3353.1,4986.9c-118.6-43.5-223.4-122.6-284.7-213.5c-140.4-205.6-148.3-340.1-39.5-662.3l73.2-221.4V2871.4V1851.2h-94.9c-83,0-98.9,5.9-124.6,51.4c-43.5,83-203.6,215.5-290.6,241.2c-100.8,31.6-460.7,29.7-565.5,0c-164.1-49.4-348-286.7-348-450.8c0-177.9,187.8-407.3,371.7-454.7l102.8-27.7v-92.9c0-51.4,7.9-116.6,17.8-142.3c33.6-85,140.4-189.8,221.4-213.5l77.1-23.7V459.3V178.5l-85-71.2C2336.8,67.8,2269.6-19.2,2232-88.4c-59.3-110.7-67.2-144.3-69.2-274.8c0-132.5,7.9-162.1,67.2-272.8c77.1-140.4,154.2-217.5,304.5-296.6l102.8-53.4l945.1-5.9l943.1-5.9v-1105.2v-1107.2h-539.8c-739.5,0-802.7-19.8-1121-328.2c-98.9-96.9-191.8-170-227.4-177.9c-87-21.8-272.8-217.5-302.5-316.3c-29.7-104.8-29.7-306.5,0-411.3c31.6-108.7,215.5-292.6,324.2-324.2c174-51.4,294.6-13.8,442.9,134.4c124.6,124.6,158.2,205.6,158.2,395.4c0,166.1-31.6,262.9-120.6,363.8l-75.1,85l102.8,100.8c176,174,45.5,162.1,1832.8,162.1c1787.3,0,1656.8,11.9,1832.8-162.1l102.8-100.8l-75.1-85c-89-100.8-120.6-197.7-120.6-363.8c0-189.8,33.6-270.9,158.2-395.4c148.3-148.3,268.9-185.8,442.9-134.4c108.7,31.6,292.6,215.5,324.2,324.2c29.7,104.8,29.7,306.5,0,411.3c-29.7,98.8-215.5,294.6-302.5,316.3c-33.6,7.9-130.5,83-227.4,177.9c-322.3,310.4-381.6,328.2-1121,328.2h-539.8v1107.2v1105.2l945.1,5.9l943.1,5.9l102.8,53.4c150.2,79.1,227.4,156.2,304.5,296.6c57.3,110.7,65.3,142.3,65.3,272.8c0,130.5-7.9,162.1-67.2,274.8c-37.6,69.2-104.8,156.2-152.2,195.8l-85,71.2v280.8V740l55.4,13.8c77.1,15.8,189.8,112.7,229.4,195.7c17.8,37.6,31.6,110.7,31.6,164.1v96.9l102.8,27.7c183.9,47.5,371.7,276.8,371.7,454.7c0,164.1-183.9,401.4-348,450.8c-104.8,29.7-464.6,31.6-565.5,0c-87-25.7-247.1-158.2-290.6-241.2c-25.7-45.5-41.5-51.4-124.6-51.4H6898v1022.2v1020.2l81.1,249.1c67.2,207.6,79.1,264.9,67.2,346c-25.7,193.8-138.4,363.8-308.4,456.7l-106.8,59.3l-1601.5,4C3716.9,5012.6,3414.3,5008.6,3353.1,4986.9z M6607.4,4680.4c144.3-55.4,164.1-168.1,81.1-440.9l-53.4-174H5000H3366.9l-53.4,164.1c-57.3,177.9-67.2,320.3-25.7,373.7c73.2,96.9,33.6,94.9,1706.3,94.9C5921.3,4698.2,6579.7,4690.3,6607.4,4680.4z M6581.7,2009.4V269.5H5000H3418.3v1739.9v1739.9H5000h1581.7V2009.4z M2587.9,1811.6c25.7-25.7,39.5-65.2,39.5-118.6c0-138.4-39.5-158.2-316.3-158.2c-276.8,0-316.3,19.8-316.3,158.2c0,138.4,39.5,158.2,316.3,158.2C2522.7,1851.2,2552.3,1847.2,2587.9,1811.6z M7965.7,1811.6c25.7-25.7,39.5-65.2,39.5-118.6c0-138.4-39.5-158.2-316.3-158.2c-276.8,0-316.3,19.8-316.3,158.2c0,138.4,39.5,158.2,316.3,158.2C7900.4,1851.2,7930.1,1847.2,7965.7,1811.6z M3102,902.2V269.5h-158.2h-158.2v257c0,174-7.9,278.8-27.7,324.2c-31.6,77.1-156.2,183.9-233.3,199.7c-49.4,11.9-55.4,21.7-55.4,87c0,71.2,2,75.1,98.9,98.9c104.8,27.7,264.9,152.2,314.4,247.1c25.7,45.5,41.5,51.4,124.6,51.4h94.9V902.2z M7117.5,1483.4c49.4-94.9,209.6-219.5,314.4-247.1c96.9-23.7,98.9-27.7,98.9-98.9c0-67.2-5.9-75.1-61.3-87c-77.1-17.8-193.8-120.6-227.4-201.7c-17.8-43.5-27.7-150.3-27.7-322.3v-257h-158.2H6898v632.7v632.7h94.9C7076,1534.8,7091.8,1528.9,7117.5,1483.4z M7370.6-82.4c114.7-57.3,150.3-124.6,150.3-280.8c0-156.2-35.6-223.4-150.3-280.8c-63.3-33.6-217.5-35.6-2370.6-35.6c-2153.1,0-2307.3,2-2370.6,35.6c-114.7,57.4-150.3,124.6-150.3,280.8c0,156.2,35.6,223.4,150.3,280.8c63.3,33.6,217.5,35.6,2370.6,35.6C7153.1-46.9,7307.3-48.8,7370.6-82.4z M5158.2-2103.1v-1107.2H5000h-158.2v1107.2v1107.2H5000h158.2V-2103.1z M2904.3-4040.6c33.6-33.6,39.5-65.2,39.5-197.7c0-189.8-31.6-237.3-158.2-237.3s-158.2,47.5-158.2,237.3s31.6,237.3,158.2,237.3C2839-4001.1,2878.5-4014.9,2904.3-4040.6z M7333-4040.6c33.6-33.6,39.5-65.2,39.5-197.7c0-189.8-31.6-237.3-158.2-237.3s-158.2,47.5-158.2,237.3s31.6,237.3,158.2,237.3C7267.8-4001.1,7307.3-4014.9,7333-4040.6z"/><path d="M3734.6,2642v-158.2H5000h1265.4V2642v158.2H5000H3734.6V2642z"/><path d="M3734.6,1693v-158.2h949h949V1693v158.2h-949h-949V1693z"/><path d="M5949,1693v-158.2h158.2h158.2V1693v158.2h-158.2H5949V1693z"/></g></g>
</svg>